<?xml version="1.0" encoding="UTF-8" standalone="no"?>
<!DOCTYPE svg PUBLIC "-//W3C//DTD SVG 1.1//EN"
 "http://www.w3.org/Graphics/SVG/1.1/DTD/svg11.dtd">
<!-- Generated by graphviz version 2.26.3 (20100126.1600)
 -->
<!-- Title: G Pages: 1 -->
<svg width="516pt" height="584pt"
 viewBox="0.00 0.00 516.00 584.00" xmlns="http://www.w3.org/2000/svg" xmlns:xlink="http://www.w3.org/1999/xlink">
<g id="graph1" class="graph" transform="scale(1 1) rotate(0) translate(4 580)">
<title>G</title>
<polygon fill="white" stroke="white" points="-4,5 -4,-580 513,-580 513,5 -4,5"/>
<g id="graph2" class="cluster"><title>cluster_global</title>
<polyline fill="none" stroke="gray" points="234,-8 488,-8 "/>
<path fill="none" stroke="gray" d="M488,-8C494,-8 500,-14 500,-20"/>
<polyline fill="none" stroke="gray" points="500,-20 500,-556 "/>
<path fill="none" stroke="gray" d="M500,-556C500,-562 494,-568 488,-568"/>
<polyline fill="none" stroke="gray" points="488,-568 234,-568 "/>
<path fill="none" stroke="gray" d="M234,-568C228,-568 222,-562 222,-556"/>
<polyline fill="none" stroke="gray" points="222,-556 222,-20 "/>
<path fill="none" stroke="gray" d="M222,-20C222,-14 228,-8 234,-8"/>
<text text-anchor="middle" x="361" y="-554.1" font-family="Times Roman,serif" font-size="11.00" fill="gray">global</text>
</g>
<!-- \\Banco_237 -->
<g id="node2" class="node"><title>\\Banco_237</title>
<a xlink:href="bancos.237.Banco_237.html" xlink:title="Banco_237" target="_parent">
<polygon fill="none" stroke="black" points="491,-268 415,-268 415,-232 491,-232 491,-268"/>
<text text-anchor="middle" x="453" y="-247.1" font-family="Courier,monospace" font-size="11.00">Banco_237</text>
</a>
</g>
<!-- \\Boleto -->
<g id="node13" class="node"><title>\\Boleto</title>
<a xlink:href="Boleto.class.html" xlink:title="Boleto" target="_parent">
<polygon fill="none" stroke="black" points="314,-160 258,-160 258,-124 314,-124 314,-160"/>
<text text-anchor="middle" x="286" y="-139.1" font-family="Courier,monospace" font-size="11.00">Boleto</text>
</a>
</g>
<!-- \\Banco_237&#45;&gt;\\Boleto -->
<g id="edge3" class="edge"><title>\\Banco_237&#45;&gt;\\Boleto</title>
<path fill="none" stroke="black" d="M425.048,-231.923C396.99,-213.778 353.619,-185.729 322.782,-165.787"/>
<polygon fill="none" stroke="black" points="324.341,-162.627 314.043,-160.136 320.54,-168.505 324.341,-162.627"/>
</g>
<!-- \\TestOf237 -->
<g id="node3" class="node"><title>\\TestOf237</title>
<a xlink:href="bancos.237.unit-testing.simpletest.html" xlink:title="TestOf237" target="_parent">
<polygon fill="none" stroke="black" points="491,-538 415,-538 415,-502 491,-502 491,-538"/>
<text text-anchor="middle" x="453" y="-517.1" font-family="Courier,monospace" font-size="11.00">TestOf237</text>
</a>
</g>
<!-- \\BoletoTestCase -->
<g id="node12" class="node"><title>\\BoletoTestCase</title>
<a xlink:href="unit-testing.boleto.test.html" xlink:title="BoletoTestCase" target="_parent">
<polygon fill="none" stroke="black" points="341,-430 231,-430 231,-394 341,-394 341,-430"/>
<text text-anchor="middle" x="286" y="-409.1" font-family="Courier,monospace" font-size="11.00">BoletoTestCase</text>
</a>
</g>
<!-- \\TestOf237&#45;&gt;\\BoletoTestCase -->
<g id="edge5" class="edge"><title>\\TestOf237&#45;&gt;\\BoletoTestCase</title>
<path fill="none" stroke="black" d="M425.048,-501.923C396.99,-483.778 353.619,-455.729 322.782,-435.787"/>
<polygon fill="none" stroke="black" points="324.341,-432.627 314.043,-430.136 320.54,-438.505 324.341,-432.627"/>
</g>
<!-- \\TestOf341 -->
<g id="node4" class="node"><title>\\TestOf341</title>
<a xlink:href="bancos.341.unit-testing.simpletest.html" xlink:title="TestOf341" target="_parent">
<polygon fill="none" stroke="black" points="491,-484 415,-484 415,-448 491,-448 491,-484"/>
<text text-anchor="middle" x="453" y="-463.1" font-family="Courier,monospace" font-size="11.00">TestOf341</text>
</a>
</g>
<!-- \\TestOf341&#45;&gt;\\BoletoTestCase -->
<g id="edge7" class="edge"><title>\\TestOf341&#45;&gt;\\BoletoTestCase</title>
<path fill="none" stroke="black" d="M414.267,-453.476C395.55,-447.423 372.573,-439.994 351.262,-433.103"/>
<polygon fill="none" stroke="black" points="352.2,-429.728 341.609,-429.981 350.047,-436.388 352.2,-429.728"/>
</g>
<!-- \\Banco_341 -->
<g id="node5" class="node"><title>\\Banco_341</title>
<a xlink:href="bancos.341.Banco_341.html" xlink:title="Banco_341" target="_parent">
<polygon fill="none" stroke="black" points="491,-214 415,-214 415,-178 491,-178 491,-214"/>
<text text-anchor="middle" x="453" y="-193.1" font-family="Courier,monospace" font-size="11.00">Banco_341</text>
</a>
</g>
<!-- \\Banco_341&#45;&gt;\\Boleto -->
<g id="edge9" class="edge"><title>\\Banco_341&#45;&gt;\\Boleto</title>
<path fill="none" stroke="black" d="M414.267,-183.476C387.268,-174.745 351.404,-163.149 324.464,-154.438"/>
<polygon fill="none" stroke="black" points="325.205,-150.999 314.613,-151.252 323.051,-157.659 325.205,-150.999"/>
</g>
<!-- \\TestOf104 -->
<g id="node6" class="node"><title>\\TestOf104</title>
<a xlink:href="bancos.104.unit-testing.simpletest.html" xlink:title="TestOf104" target="_parent">
<polygon fill="none" stroke="black" points="491,-430 415,-430 415,-394 491,-394 491,-430"/>
<text text-anchor="middle" x="453" y="-409.1" font-family="Courier,monospace" font-size="11.00">TestOf104</text>
</a>
</g>
<!-- \\TestOf104&#45;&gt;\\BoletoTestCase -->
<g id="edge11" class="edge"><title>\\TestOf104&#45;&gt;\\BoletoTestCase</title>
<path fill="none" stroke="black" d="M414.267,-412C395.719,-412 372.986,-412 351.838,-412"/>
<polygon fill="none" stroke="black" points="351.609,-408.5 341.609,-412 351.609,-415.5 351.609,-408.5"/>
</g>
<!-- \\Banco_104 -->
<g id="node7" class="node"><title>\\Banco_104</title>
<a xlink:href="bancos.104.Banco_104.html" xlink:title="Banco_104" target="_parent">
<polygon fill="none" stroke="black" points="491,-160 415,-160 415,-124 491,-124 491,-160"/>
<text text-anchor="middle" x="453" y="-139.1" font-family="Courier,monospace" font-size="11.00">Banco_104</text>
</a>
</g>
<!-- \\Banco_104&#45;&gt;\\Boleto -->
<g id="edge13" class="edge"><title>\\Banco_104&#45;&gt;\\Boleto</title>
<path fill="none" stroke="black" d="M414.267,-142C387.387,-142 351.72,-142 324.821,-142"/>
<polygon fill="none" stroke="black" points="324.613,-138.5 314.613,-142 324.613,-145.5 324.613,-138.5"/>
</g>
<!-- \\Banco_001 -->
<g id="node8" class="node"><title>\\Banco_001</title>
<a xlink:href="bancos.001.Banco_001.html" xlink:title="Banco_001" target="_parent">
<polygon fill="none" stroke="black" points="491,-106 415,-106 415,-70 491,-70 491,-106"/>
<text text-anchor="middle" x="453" y="-85.1" font-family="Courier,monospace" font-size="11.00">Banco_001</text>
</a>
</g>
<!-- \\Banco_001&#45;&gt;\\Boleto -->
<g id="edge15" class="edge"><title>\\Banco_001&#45;&gt;\\Boleto</title>
<path fill="none" stroke="black" d="M414.267,-100.524C387.268,-109.255 351.404,-120.851 324.464,-129.562"/>
<polygon fill="none" stroke="black" points="323.051,-126.341 314.613,-132.748 325.205,-133.001 323.051,-126.341"/>
</g>
<!-- \\TestOf001 -->
<g id="node9" class="node"><title>\\TestOf001</title>
<a xlink:href="bancos.001.unit-testing.simpletest.html" xlink:title="TestOf001" target="_parent">
<polygon fill="none" stroke="black" points="491,-376 415,-376 415,-340 491,-340 491,-376"/>
<text text-anchor="middle" x="453" y="-355.1" font-family="Courier,monospace" font-size="11.00">TestOf001</text>
</a>
</g>
<!-- \\TestOf001&#45;&gt;\\BoletoTestCase -->
<g id="edge17" class="edge"><title>\\TestOf001&#45;&gt;\\BoletoTestCase</title>
<path fill="none" stroke="black" d="M414.267,-370.524C395.55,-376.577 372.573,-384.006 351.262,-390.897"/>
<polygon fill="none" stroke="black" points="350.047,-387.612 341.609,-394.019 352.2,-394.272 350.047,-387.612"/>
</g>
<!-- \\Banco_748 -->
<g id="node10" class="node"><title>\\Banco_748</title>
<a xlink:href="bancos.748.Banco_748.html" xlink:title="Banco_748" target="_parent">
<polygon fill="none" stroke="black" points="491,-52 415,-52 415,-16 491,-16 491,-52"/>
<text text-anchor="middle" x="453" y="-31.1" font-family="Courier,monospace" font-size="11.00">Banco_748</text>
</a>
</g>
<!-- \\Banco_748&#45;&gt;\\Boleto -->
<g id="edge19" class="edge"><title>\\Banco_748&#45;&gt;\\Boleto</title>
<path fill="none" stroke="black" d="M425.048,-52.0768C396.99,-70.2218 353.619,-98.2705 322.782,-118.213"/>
<polygon fill="none" stroke="black" points="320.54,-115.495 314.043,-123.864 324.341,-121.373 320.54,-115.495"/>
</g>
<!-- \\TestOf748 -->
<g id="node11" class="node"><title>\\TestOf748</title>
<a xlink:href="bancos.748.unit-testing.simpletest.html" xlink:title="TestOf748" target="_parent">
<polygon fill="none" stroke="black" points="491,-322 415,-322 415,-286 491,-286 491,-322"/>
<text text-anchor="middle" x="453" y="-301.1" font-family="Courier,monospace" font-size="11.00">TestOf748</text>
</a>
</g>
<!-- \\TestOf748&#45;&gt;\\BoletoTestCase -->
<g id="edge21" class="edge"><title>\\TestOf748&#45;&gt;\\BoletoTestCase</title>
<path fill="none" stroke="black" d="M425.048,-322.077C396.99,-340.222 353.619,-368.271 322.782,-388.213"/>
<polygon fill="none" stroke="black" points="320.54,-385.495 314.043,-393.864 324.341,-391.373 320.54,-385.495"/>
</g>
<!-- \\UnitTestCase -->
<g id="node25" class="node"><title>\\UnitTestCase</title>
<ellipse fill="none" stroke="black" cx="79" cy="-412" rx="77.9889" ry="18.3848"/>
<text text-anchor="middle" x="79" y="-408.4" font-family="Times Roman,serif" font-size="14.00" fill="gray">\UnitTestCase</text>
</g>
<!-- \\BoletoTestCase&#45;&gt;\\UnitTestCase -->
<g id="edge23" class="edge"><title>\\BoletoTestCase&#45;&gt;\\UnitTestCase</title>
<path fill="none" stroke="black" d="M230.255,-412C211.115,-412 189.183,-412 168.069,-412"/>
<polygon fill="none" stroke="black" points="167.785,-408.5 157.785,-412 167.785,-415.5 167.785,-408.5"/>
</g>
</g>
</svg>
