<?xml version="1.0" encoding="UTF-8" standalone="no"?>
<!DOCTYPE svg PUBLIC "-//W3C//DTD SVG 1.1//EN"
 "http://www.w3.org/Graphics/SVG/1.1/DTD/svg11.dtd">
<!-- Generated by graphviz version 2.26.3 (20100126.1600)
 -->
<!-- Title: G Pages: 1 -->
<svg width="98pt" height="98pt"
 viewBox="0.00 0.00 98.00 98.00" xmlns="http://www.w3.org/2000/svg" xmlns:xlink="http://www.w3.org/1999/xlink">
<g id="graph1" class="graph" transform="scale(1 1) rotate(0) translate(4 94)">
<title>G</title>
<polygon fill="white" stroke="white" points="-4,5 -4,-94 95,-94 95,5 -4,5"/>
<g id="graph2" class="cluster"><title>cluster_global</title>
<polyline fill="none" stroke="gray" points="20,-8 70,-8 "/>
<path fill="none" stroke="gray" d="M70,-8C76,-8 82,-14 82,-20"/>
<polyline fill="none" stroke="gray" points="82,-20 82,-70 "/>
<path fill="none" stroke="gray" d="M82,-70C82,-76 76,-82 70,-82"/>
<polyline fill="none" stroke="gray" points="70,-82 20,-82 "/>
<path fill="none" stroke="gray" d="M20,-82C14,-82 8,-76 8,-70"/>
<polyline fill="none" stroke="gray" points="8,-70 8,-20 "/>
<path fill="none" stroke="gray" d="M8,-20C8,-14 14,-8 20,-8"/>
<text text-anchor="middle" x="45" y="-68.1" font-family="Times Roman,serif" font-size="11.00" fill="gray">global</text>
</g>
<!-- \\Boleto -->
<g id="node2" class="node"><title>\\Boleto</title>
<a xlink:href="Boleto.class.html" xlink:title="Boleto" target="_parent">
<polygon fill="none" stroke="black" points="73,-52 17,-52 17,-16 73,-16 73,-52"/>
<text text-anchor="middle" x="45" y="-31.1" font-family="Courier,monospace" font-size="11.00">Boleto</text>
</a>
</g>
</g>
</svg>
